<svg width="82" height="36" fill="none" xmlns="http://www.w3.org/2000/svg"><path d="M74.08 26.336c-1.328 0-2.56-.208-3.696-.624-1.136-.432-2.12-1.04-2.952-1.824-.816-.784-1.456-1.704-1.92-2.76-.464-1.072-.696-2.248-.696-3.528 0-1.28.232-2.448.696-3.504.464-1.072 1.112-2 1.944-2.784.832-.784 1.816-1.384 2.952-1.8 1.152-.432 2.408-.648 3.768-.648 1.584 0 3 .264 4.248.792 1.248.528 2.28 1.288 3.096 2.28l-3.024 2.736c-.576-.624-1.2-1.088-1.872-1.392-.656-.32-1.392-.48-2.208-.48-.72 0-1.376.112-1.968.336-.592.224-1.096.552-1.512.984-.416.416-.744.92-.984 1.512-.224.576-.336 1.232-.336 1.968 0 .704.112 1.352.336 1.944.24.592.568 1.104.984 1.536.416.416.912.744 1.488.984.592.224 1.24.336 1.944.336s1.392-.112 2.064-.336c.672-.24 1.352-.64 2.04-1.2l2.664 3.336c-.96.688-2.072 1.216-3.336 1.584-1.264.368-2.504.552-3.72.552Zm2.856-2.76V17.24h4.2v6.96l-4.2-.624Z" fill="#333"/><path fill-rule="evenodd" clip-rule="evenodd" d="M58 18c0 2.8737-.5986 5.5901-1.6631 8H43c2.4627-3.7719 5-8.3394 5-13C48 7.0024 43.9385 1.9534 38.4158.4534A14.3504 14.3504 0 0 1 42 0c8.8366 0 16 8.0589 16 18Zm-14-5c0-4.9706-4.0294-9-9-9-6.6507 0-9 8.5071-9 14 0 9.9411 7.1634 18 16 18 4.7387 0 8.9962-2.3175 11.9259-6H35c.3518-.4486.7202-.9109 1.0987-1.3858C39.6157 24.2012 44 18.6997 44 13Z" fill="#7859CF"/><path d="M1.8519 26V9.2h7.944c1.856 0 3.488.344 4.896 1.032 1.408.688 2.504 1.656 3.288 2.904.8 1.248 1.2 2.736 1.2 4.464 0 1.712-.4 3.2-1.2 4.464-.784 1.248-1.88 2.216-3.288 2.904-1.408.688-3.04 1.032-4.896 1.032h-7.944Zm4.752-3.792h3c.96 0 1.792-.176 2.496-.528.72-.368 1.28-.896 1.68-1.584.4-.704.6-1.536.6-2.496 0-.976-.2-1.808-.6-2.496-.4-.688-.96-1.208-1.68-1.56-.704-.368-1.536-.552-2.496-.552h-3v9.216Z" fill="#333"/></svg>